<svg xmlns="http://www.w3.org/2000/svg" viewBox="0 0 289.7 172"><path d="M77.9 110.7l38-2.9v55.4s-87 32.7-109.7-27.7S30.5 44 30.5 44s32.4-22.2 85.4-4.8l-8.7 36.4S74.9 60.3 58 67.7c0 0-13 2-13 35.7 0 0-.3 49 33.5 36.6l-.6-29.3zm55.3-47.9H172s-4 84 0 106.7h-38.8c1.9-35.5 1.9-71.2 0-106.7zM162.4 0h-20.1l-14.9 46.9h16.9l1-6.4h12.5l1 6.4h17L162.4 0zm-14.3 28.4l3.7-13.4 3.7 13.4h-7.4zm49.3 6.4s4.8 120 0 134.8h41.9l-2.1-46.7h39.3l2.6-29.3-3.4-2.9-37.4.5V66.7l48.3 1.6 3.2-30.3-2.6-3.2h-89.8z" fill="#fff"/></svg>