<svg data-name="Слой 2" xmlns="http://www.w3.org/2000/svg" viewBox="0 0 289.71 172.03"><path d="M77.93 110.7l38-2.9v55.39s-87 32.7-109.71-27.7S30.45 44 30.45 44s32.44-22.16 85.45-4.75l-8.7 36.39S74.9 60.33 58 67.71c0 0-13 2-13 35.7 0 0-.26 49 33.49 36.57zm55.28-47.9H172s-4 84 0 106.71h-38.79a1030 1030 0 000-106.71zM162.38 0h-20.07l-14.94 46.88h16.92l1-6.43h12.47l1 6.43h17zm-14.24 28.38L151.8 15l3.66 13.35zm49.26 6.37s4.75 120 0 134.76h41.93l-2.11-46.68h39.3l2.64-29.27-3.43-2.9-37.45.53V66.66l48.26 1.58 3.17-30.33-2.64-3.16z"/></svg>